<svg preserveAspectRatio="none" width="100%" height="100%" overflow="visible" style="display: block;" viewBox="0 0 36 36" fill="none" xmlns="http://www.w3.org/2000/svg">
<g id="SVG">
<path id="Vector" d="M6.75 4.5C6.75 3.30653 7.22411 2.16193 8.06802 1.31802C8.91193 0.474106 10.0565 0 11.25 0L24.75 0C25.9435 0 27.0881 0.474106 27.932 1.31802C28.7759 2.16193 29.25 3.30653 29.25 4.5V31.5C29.25 32.6935 28.7759 33.8381 27.932 34.682C27.0881 35.5259 25.9435 36 24.75 36H11.25C10.0565 36 8.91193 35.5259 8.06802 34.682C7.22411 33.8381 6.75 32.6935 6.75 31.5V4.5ZM20.25 29.25C20.25 28.6533 20.0129 28.081 19.591 27.659C19.169 27.2371 18.5967 27 18 27C17.4033 27 16.831 27.2371 16.409 27.659C15.9871 28.081 15.75 28.6533 15.75 29.25C15.75 29.8467 15.9871 30.419 16.409 30.841C16.831 31.2629 17.4033 31.5 18 31.5C18.5967 31.5 19.169 31.2629 19.591 30.841C20.0129 30.419 20.25 29.8467 20.25 29.25Z" fill="var(--fill-0, black)"/>
</g>
</svg>
