<svg preserveAspectRatio="xMidYMid meet" width="36" height="36" viewBox="0 0 36 36" fill="none" xmlns="http://www.w3.org/2000/svg">
<g id="SVG">
<path id="Vector" d="M4.5 0C3.30653 0 2.16193 0.474106 1.31802 1.31802C0.474106 2.16193 0 3.30653 0 4.5L0 31.5C0 32.6935 0.474106 33.8381 1.31802 34.682C2.16193 35.5259 3.30653 36 4.5 36H31.5C32.6935 36 33.8381 35.5259 34.682 34.682C35.5259 33.8381 36 32.6935 36 31.5V4.5C36 3.30653 35.5259 2.16193 34.682 1.31802C33.8381 0.474106 32.6935 0 31.5 0L4.5 0ZM5.625 11.25H30.375C30.6734 11.25 30.9595 11.3685 31.1705 11.5795C31.3815 11.7905 31.5 12.0766 31.5 12.375C31.5 12.6734 31.3815 12.9595 31.1705 13.1705C30.9595 13.3815 30.6734 13.5 30.375 13.5H5.625C5.32663 13.5 5.04048 13.3815 4.82951 13.1705C4.61853 12.9595 4.5 12.6734 4.5 12.375C4.5 12.0766 4.61853 11.7905 4.82951 11.5795C5.04048 11.3685 5.32663 11.25 5.625 11.25ZM9 19.125C9 18.8266 9.11853 18.5405 9.32951 18.3295C9.54048 18.1185 9.82663 18 10.125 18H25.875C26.1734 18 26.4595 18.1185 26.6705 18.3295C26.8815 18.5405 27 18.8266 27 19.125C27 19.4234 26.8815 19.7095 26.6705 19.9205C26.4595 20.1315 26.1734 20.25 25.875 20.25H10.125C9.82663 20.25 9.54048 20.1315 9.32951 19.9205C9.11853 19.7095 9 19.4234 9 19.125ZM13.5 25.875C13.5 25.5766 13.6185 25.2905 13.8295 25.0795C14.0405 24.8685 14.3266 24.75 14.625 24.75H21.375C21.6734 24.75 21.9595 24.8685 22.1705 25.0795C22.3815 25.2905 22.5 25.5766 22.5 25.875C22.5 26.1734 22.3815 26.4595 22.1705 26.6705C21.9595 26.8815 21.6734 27 21.375 27H14.625C14.3266 27 14.0405 26.8815 13.8295 26.6705C13.6185 26.4595 13.5 26.1734 13.5 25.875Z" fill="var(--fill-0, black)"/>
</g>
</svg>
