<svg preserveAspectRatio="none" width="100%" height="100%" overflow="visible" style="display: block;" viewBox="0 0 36 36" fill="none" xmlns="http://www.w3.org/2000/svg">
<g id="SVG">
<path id="Vector" d="M20.3625 0.97875C19.0575 -0.32625 16.9425 -0.32625 15.6375 0.97875L9.10575 7.51275L18 16.4093L26.8965 7.51275L20.3602 0.97875H20.3625ZM28.485 9.1035L19.593 18L28.4895 26.8965L35.0235 20.3602C36.3285 19.0552 36.3285 16.9425 35.0235 15.6398L28.4895 9.1035H28.485ZM26.8965 28.485L18 19.593L9.1035 28.4895L15.6398 35.0235C16.9448 36.3285 19.0575 36.3285 20.3602 35.0235L26.8965 28.4895V28.485ZM7.515 26.8965L16.407 18L7.51275 9.1035L0.97875 15.6398C-0.32625 16.9448 -0.32625 19.0575 0.97875 20.3602L7.515 26.8965Z" fill="var(--fill-0, black)"/>
</g>
</svg>
